# xmcd
#
# Track frame offsets: 
#        150
#        10747
#        21404
#        34763
#        45404
#        57422
#        67684
#        79121
#        91100
#        101834
#        113827
#        126105
#        138742
#        151712
#        163293
#        176236
#        188678
#        202141
#        215085
#        224703
#        237811
#        251863
#        266607
#        281076
#        291713
#        305935
#
# Disc length: 4227 seconds
#
# Revision: 0
# Processed by: cddbd v1.5.2PL0 Copyright (c) Steve Scherf et al.
# Submitted via: ExactAudioCopy v1.0b3
#
DISCID=9610811a
DTITLE=Belmont Silvertone Jubilee Singers and Southern Wonder Quartet - 
DTITLE=Complete Recorded Works In Chronological Order
DYEAR=1995
DGENRE=Gospel
TTITLE0=Belmont Silvertone Jubilee Singers - Brother My Way Seems Clou
TTITLE0=dy
TTITLE1=Belmont Silvertone Jubilee Singers - Don't Feel No Ways Tired
TTITLE2=Belmont Silvertone Jubilee Singers - My Lord's A Rock In The W
TTITLE2=eary Land
TTITLE3=Belmont Silvertone Jubilee Singers - In My Dying Room
TTITLE4=Belmont Silvertone Jubilee Singers - How We Got Over
TTITLE5=Belmont Silvertone Jubilee Singers - I Don't Know What I'd Wit
TTITLE5=hout The Lord
TTITLE6=Belmont Silvertone Jubilee Singers - When I Grow Old And Feebl
TTITLE6=e
TTITLE7=Belmont Silvertone Jubilee Singers - God Don't Like It
TTITLE8=Belmont Silvertone Jubilee Singers - Fire Down Yonder
TTITLE9=Belmont Silvertone Jubilee Singers - I Want Two Wings
TTITLE10=Belmont Silvertone Jubilee Singers - I Wonder If My Name Is W
TTITLE10=ritten
TTITLE11=Belmont Silvertone Jubilee Singers - ere You There When They 
TTITLE11=Crucified My Lord
TTITLE12=Belmont Silvertone Jubilee Singers - I'm The Light Of The Wor
TTITLE12=ld
TTITLE13=Belmont Silvertone Jubilee Singers - Somebody's Kockin' At Yo
TTITLE13=ur Door
TTITLE14=Belmont Silvertone Jubilee Singers - Wade In The Water And Be
TTITLE14=Baptised
TTITLE15=Belmont Silvertone Jubilee Singers - I'm Moving Up Home Somed
TTITLE15=ay
TTITLE16=Southern Wonder Quartet - Go Wash In The Beautiful Stream
TTITLE17=Southern Wonder Quartet - Raphael
TTITLE18=Southern Wonder Quartet - I'm A Pilgrim
TTITLE19=Southern Wonder Quartet - He Will Remember Me
TTITLE20=Southern Wonder Quartet - I Will Ever Stand
TTITLE21=Southern Wonder Quartet - I've Anchored My Love
TTITLE22=Southern Wonder Quartet - His Eyes On The Sparrow
TTITLE23=Southern Wonder Quartet - Ride On King Jesus
TTITLE24=Southern Wonder Quartet - Shady Green Pastures
TTITLE25=Southern Wonder Quartet - When The Love Comes Twinklin' Down
EXTD=
EXTT0=
EXTT1=
EXTT2=
EXTT3=
EXTT4=
EXTT5=
EXTT6=
EXTT7=
EXTT8=
EXTT9=
EXTT10=
EXTT11=
EXTT12=
EXTT13=
EXTT14=
EXTT15=
EXTT16=
EXTT17=
EXTT18=
EXTT19=
EXTT20=
EXTT21=
EXTT22=
EXTT23=
EXTT24=
EXTT25=
PLAYORDER=
